<?xml version="1.0" standalone="no"?>
<!DOCTYPE svg PUBLIC "-//W3C//DTD SVG 20010904//EN"
 "http://www.w3.org/TR/2001/REC-SVG-20010904/DTD/svg10.dtd">
<svg version="1.0" xmlns="http://www.w3.org/2000/svg"
 width="750.000000pt" height="935.000000pt" viewBox="0 0 750.000000 935.000000"
 preserveAspectRatio="xMidYMid meet">

<g transform="translate(0.000000,935.000000) scale(0.100000,-0.100000)"
fill="#000000" stroke="none">
<path d="M0 4675 l0 -4675 3750 0 3750 0 0 4675 0 4675 -3750 0 -3750 0 0
-4675z m3831 3268 c12 -16 12 -17 -2 -6 -9 7 -20 9 -24 5 -5 -4 -5 -1 -1 6 9
16 11 15 27 -5z m143 -182 c-5 -6 -33 31 -33 44 -1 6 8 -1 19 -15 10 -14 17
-27 14 -29z m-105 32 c-3 -21 2 -33 13 -27 7 5 8 3 3 -6 -6 -10 -11 -9 -21 5
-7 10 -11 22 -8 26 6 11 14 12 13 2z m127 -61 c-8 -8 15 -33 24 -27 5 3 6 -4
3 -15 -3 -11 0 -20 6 -20 6 0 10 -5 9 -11 -2 -6 3 -14 11 -17 9 -3 11 0 7 7
-4 7 -2 19 6 28 11 14 11 16 -4 10 -13 -4 -16 -1 -13 15 3 11 7 23 11 27 4 3
5 -1 2 -10 -4 -9 2 -20 13 -27 10 -7 19 -18 19 -25 0 -9 -3 -8 -9 2 -6 10 -10
10 -16 1 -4 -6 -4 -14 -1 -17 3 -3 0 -13 -6 -21 -10 -11 -9 -17 3 -26 9 -6 14
-17 12 -23 -3 -7 2 -13 10 -13 10 0 13 -7 10 -20 -3 -11 -1 -20 5 -20 11 0 10
-25 0 -36 -4 -3 -5 -11 -3 -17 2 -7 6 -26 9 -44 5 -31 4 -32 -27 -31 -30 1
-36 7 -70 72 -36 70 -41 97 -11 60 15 -19 16 -19 9 1 -4 11 -10 28 -12 37 -3
10 -9 15 -14 12 -5 -3 -7 -10 -4 -15 4 -5 3 -9 -2 -9 -4 0 -25 37 -46 82 -26
58 -34 85 -27 92 8 8 9 6 5 -6 -5 -12 -1 -20 8 -24 10 -3 13 -12 10 -22 -5
-11 -2 -14 9 -10 18 7 46 -8 35 -19 -5 -4 -12 -1 -17 7 -8 12 -10 10 -10 -8 0
-13 6 -22 13 -21 23 3 38 -1 33 -9 -2 -4 -1 -14 4 -21 6 -10 11 -6 22 15 13
27 12 33 -15 82 -22 39 -25 51 -13 46 9 -4 14 -9 12 -12z m112 -94 c-2 -6 6
-22 18 -35 28 -30 76 -147 68 -167 -8 -21 -31 -27 -38 -11 -3 9 0 12 10 8 7
-3 14 0 14 6 0 6 -5 11 -11 11 -8 0 -7 5 1 15 7 9 10 18 6 22 -3 3 -6 0 -6 -8
-1 -8 -7 -3 -14 11 -8 14 -12 28 -10 32 3 5 1 8 -5 8 -5 0 -11 -3 -14 -7 -2
-5 -2 -3 -1 4 2 7 -1 15 -7 19 -6 3 -8 12 -5 20 3 8 2 13 -2 13 -19 -3 -25 2
-12 11 10 6 11 10 3 10 -7 0 -13 11 -13 25 0 14 5 25 11 25 6 0 9 -5 7 -12z
m41 -157 c8 -14 7 -22 -3 -30 -10 -9 -7 -22 15 -68 41 -83 35 -89 -11 -12 -32
54 -39 73 -34 98 7 35 19 40 33 12z m-595 -66 c-4 -8 -8 -15 -10 -15 -2 0 -4
7 -4 15 0 8 4 15 10 15 5 0 7 -7 4 -15z m333 -11 c-3 -3 -12 -4 -19 -1 -8 3
-5 6 6 6 11 1 17 -2 13 -5z m46 -1 c-7 -2 -19 -2 -25 0 -7 3 -2 5 12 5 14 0
19 -2 13 -5z m-215 -78 c-11 -20 -23 -34 -25 -31 -5 5 35 66 42 66 3 0 -5 -16
-17 -35z m-122 -261 l-26 -46 23 -20 22 -19 -26 15 c-14 9 -28 13 -32 10 -3
-4 -5 7 -4 22 2 17 8 29 16 29 8 0 16 6 19 14 3 9 0 11 -8 6 -9 -5 -11 -4 -6
4 4 6 11 9 16 6 4 -3 10 2 14 10 3 8 8 15 12 15 3 0 -6 -21 -20 -46z m-336
-60 c0 -5 -33 7 -46 17 -6 5 -14 6 -17 2 -4 -3 -7 1 -7 10 0 14 4 14 35 -4 19
-12 35 -23 35 -25z m170 -23 c0 -14 -2 -14 -10 -1 -8 13 -10 13 -10 1 0 -11
-3 -12 -11 -4 -6 6 -8 16 -5 22 9 15 36 2 36 -18z m-138 0 c-1 -7 2 -10 8 -6
9 5 112 -45 135 -66 13 -12 38 -11 30 1 -3 6 -1 10 5 10 6 0 8 -10 4 -27 -9
-36 -10 -37 -26 -24 -22 20 -117 80 -153 97 -19 9 -32 20 -29 26 8 13 30 3 26
-11z m205 -3 c7 -5 14 -5 18 2 3 6 11 8 16 5 13 -9 11 -25 -4 -25 -7 0 53
-132 144 -318 l157 -318 44 -13 c59 -16 231 -82 243 -93 15 -14 -14 -9 -45 7
-17 9 -30 13 -30 10 0 -3 -10 1 -22 9 -13 8 -47 19 -76 25 -30 6 -63 16 -74
22 -11 6 -22 9 -24 6 -3 -3 13 -43 35 -90 22 -47 47 -101 55 -121 8 -20 19
-36 23 -36 4 0 21 11 37 25 16 14 34 25 40 25 6 -1 -7 -16 -29 -35 -22 -19
-39 -41 -37 -49 1 -9 36 -85 77 -171 41 -86 75 -164 75 -173 0 -25 -29 27 -77
138 -86 199 -192 429 -241 521 -27 53 -53 107 -57 120 -4 13 -47 107 -96 208
-49 101 -89 187 -89 192 0 5 -4 9 -10 9 -5 0 -10 5 -10 11 0 6 -13 28 -30 49
-16 21 -30 43 -30 49 0 6 -6 11 -14 11 -8 0 -17 4 -20 9 -7 11 34 2 51 -11z
m810 -40 c-3 -7 -5 -2 -5 12 0 14 2 19 5 13 2 -7 2 -19 0 -25z m-504 -113
c123 -124 278 -329 381 -508 53 -92 19 -57 -49 50 -177 280 -277 402 -456 556
-40 35 -41 37 -10 20 18 -10 79 -63 134 -118z m525 35 c0 -9 -3 -7 -8 5 -5 11
-8 29 -8 40 0 16 2 15 8 -5 4 -14 8 -32 8 -40z m-843 -20 c-15 -41 -34 -80
-35 -69 0 4 6 22 14 40 7 19 16 42 19 52 4 9 9 17 11 17 3 0 -1 -18 -9 -40z
m862 -187 c-2 -21 -4 -6 -4 32 0 39 2 55 4 38 2 -18 2 -50 0 -70z m-926 31
c-11 -27 -20 -45 -20 -39 -1 14 31 96 36 92 2 -3 -5 -26 -16 -53z m936 -136
c-2 -13 -4 -3 -4 22 0 25 2 35 4 23 2 -13 2 -33 0 -45z m-877 -25 c-11 -17
-11 -17 -6 0 3 10 6 24 7 30 0 9 2 9 5 0 3 -7 0 -20 -6 -30z m-23 -55 c-2 -24
28 -38 175 -83 48 -15 92 -33 98 -40 10 -13 3 -11 -115 27 -16 5 -37 11 -47
13 -9 2 -30 11 -47 19 -16 9 -42 16 -57 16 -15 0 -33 8 -41 18 -8 9 -12 11 -8
5 4 -9 1 -11 -9 -7 -16 6 -23 26 -8 22 4 -1 17 2 30 6 19 6 21 10 11 22 -10
12 -9 13 4 8 9 -3 15 -15 14 -26z m900 -20 c-2 -13 -4 -5 -4 17 -1 22 1 32 4
23 2 -10 2 -28 0 -40z m-925 -47 c8 11 9 10 4 -4 -3 -10 -6 -26 -6 -34 0 -11
-6 -8 -20 10 -24 30 -26 45 -4 26 13 -10 17 -10 26 2z m915 -78 c-3 -10 -5 -4
-5 12 0 17 2 24 5 18 2 -7 2 -21 0 -30z m-929 -336 c29 -21 99 -67 155 -102
100 -62 102 -63 122 -45 34 30 154 119 178 130 19 10 19 8 -4 -12 -14 -13 -60
-50 -102 -82 -43 -33 -77 -62 -77 -66 0 -3 25 -22 56 -41 116 -71 324 -212
320 -217 -10 -10 -196 103 -242 146 -12 12 -25 18 -28 15 -3 -4 -6 -2 -6 4 0
5 -21 20 -47 33 -27 12 -91 53 -143 89 -52 37 -130 87 -172 111 -42 23 -76 46
-75 50 1 5 -2 8 -7 8 -9 0 -26 22 -26 35 0 9 31 -8 98 -56z m522 29 c0 -3 -4
-8 -10 -11 -5 -3 -10 -1 -10 4 0 6 5 11 10 11 6 0 10 -2 10 -4z m-587 -63 c3
-10 2 -38 -3 -63 -6 -34 -16 -42 -12 -8 1 3 -5 12 -13 18 -8 7 -15 9 -15 5 0
-4 -7 -2 -15 5 -8 7 -15 18 -15 24 0 6 5 4 10 -4 9 -13 11 -13 20 0 8 13 10
12 10 -3 0 -10 5 -15 11 -11 6 3 8 17 5 30 -7 27 10 33 17 7z m-90 -23 c3 -11
1 -23 -4 -26 -5 -3 -7 -10 -4 -15 4 -5 3 -9 -2 -9 -15 0 -31 48 -20 59 16 16
24 13 30 -9z m342 -170 c-32 -35 -184 -132 -196 -124 -7 4 -9 3 -5 -4 3 -6 2
-13 -3 -16 -5 -3 -15 -29 -21 -58 -11 -45 -14 -49 -21 -30 -5 12 -15 25 -24
28 -8 4 -14 16 -14 28 1 16 2 17 6 4 8 -30 20 -20 21 17 1 19 -3 35 -8 35 -6
0 -10 6 -10 14 0 18 43 33 48 18 2 -6 10 -8 19 -5 12 5 14 3 8 -6 -20 -33 97
31 178 96 35 28 46 30 22 3z m-270 -140 c3 -5 1 -10 -4 -10 -6 0 -11 5 -11 10
0 6 2 10 4 10 3 0 8 -4 11 -10z m5 -90 c0 -5 -7 -7 -15 -4 -8 4 -15 8 -15 10
0 2 7 4 15 4 8 0 15 -4 15 -10z m681 -11 c-14 -5 -32 -7 -40 -4 -8 3 -12 3 -8
-1 10 -11 -48 -28 -233 -70 -202 -45 -323 -64 -398 -63 -65 2 -79 12 -56 44
12 17 14 17 14 2 0 -14 11 -17 75 -17 40 0 98 5 127 10 123 25 337 74 393 91
65 19 172 26 126 8z m75 -36 c-200 -249 -289 -339 -492 -491 -103 -77 -117
-92 -89 -92 20 0 19 -7 -5 -37 -20 -25 -20 -25 -20 -4 0 15 4 20 13 15 6 -4 3
2 -7 14 -11 12 -17 24 -15 26 2 2 31 25 64 52 33 26 66 55 73 63 11 13 12 13
6 1 -4 -9 2 -7 13 5 11 11 30 27 42 35 12 8 40 32 62 53 23 20 45 37 50 37 5
0 9 6 9 13 0 6 14 21 30 32 29 19 185 191 239 263 13 18 28 32 32 32 5 0 2 -8
-5 -17z m-909 -84 c-9 -6 -15 -14 -12 -20 4 -5 1 -9 -4 -9 -15 0 -14 27 2 33
22 10 32 7 14 -4z m-22 -199 c3 -6 -1 -7 -9 -4 -18 7 -21 14 -7 14 6 0 13 -4
16 -10z m-15 -26 c0 -2 -9 0 -20 6 -11 6 -20 13 -20 16 0 2 9 0 20 -6 11 -6
20 -13 20 -16z m-45 -4 c3 -5 1 -10 -4 -10 -6 0 -11 5 -11 10 0 6 2 10 4 10 3
0 8 -4 11 -10z m30 -55 l20 -16 -20 10 c-11 5 -29 17 -40 26 l-20 16 20 -10
c11 -5 29 -17 40 -26z m-205 -20 c0 -8 -2 -15 -4 -15 -2 0 -6 7 -10 15 -3 8
-1 15 4 15 6 0 10 -7 10 -15z m143 -62 c3 -2 4 13 2 34 -1 21 -1 30 2 20 2 -9
8 -15 13 -12 5 3 12 1 15 -5 4 -6 1 -9 -7 -8 -15 3 -12 -45 3 -50 15 -6 -25
-39 -56 -46 l-30 -8 28 22 c26 20 27 24 13 39 -9 10 -16 35 -16 57 l1 39 14
-38 c7 -21 15 -41 18 -44z m177 -25 c11 -51 24 -102 27 -113 3 -13 2 -17 -5
-10 -5 6 -19 54 -31 108 -23 106 -23 107 -17 107 2 0 14 -42 26 -92z m-349 73
c7 11 9 10 9 -3 0 -11 5 -15 14 -12 7 3 16 -2 19 -10 4 -9 2 -16 -4 -16 -6 0
3 -13 19 -30 17 -16 35 -30 41 -30 6 0 11 -4 11 -10 0 -15 -130 -13 -131 3 -7
85 -2 142 9 108 4 -11 6 -11 13 0z m209 -181 l9 -35 -19 25 c-10 13 -17 36
-15 50 4 35 7 38 12 15 2 -11 8 -36 13 -55z m310 31 c14 -4 20 -9 15 -13 -6
-3 -23 1 -40 8 -32 14 -17 17 25 5z m-420 -21 c0 -5 -5 -10 -11 -10 -5 0 -7 5
-4 10 3 6 8 10 11 10 2 0 4 -4 4 -10z m460 -10 c0 -5 -8 -10 -17 -10 -15 0
-16 2 -3 10 19 12 20 12 20 0z m-448 -17 c-10 -4 -10 -8 -1 -19 6 -8 7 -14 3
-14 -5 0 -15 9 -22 20 -11 18 -10 20 10 19 13 0 17 -3 10 -6z m418 -14 c0 -4
-7 -6 -15 -3 -8 4 -15 10 -15 15 0 4 7 6 15 3 8 -4 15 -10 15 -15z m-30 -9
c13 -9 13 -10 0 -10 -8 0 -22 5 -30 10 -13 9 -13 10 0 10 8 0 22 -5 30 -10z
m76 -26 c-3 -15 -8 -29 -12 -33 -4 -3 -4 2 -1 12 4 12 1 17 -11 18 -16 1 -16
2 1 6 9 2 15 9 12 14 -4 5 -1 9 5 9 6 0 8 -11 6 -26z m-77 0 c3 -3 -1 -10 -9
-17 -10 -10 -11 -9 -5 1 5 9 2 12 -10 10 -10 -2 -20 3 -23 11 -3 10 2 11 19 6
13 -4 26 -9 28 -11z m37 -34 c8 0 14 -4 14 -10 0 -11 -118 -150 -127 -150 -4
0 8 15 26 34 18 18 33 40 35 47 4 28 27 59 44 59 16 1 16 1 0 11 -10 5 -17 18
-17 27 1 15 2 15 6 0 2 -10 11 -18 19 -18z m-89 -12 c-3 -8 -6 -5 -6 6 -1 11
2 17 5 13 3 -3 4 -12 1 -19z"/>
<path d="M3958 7624 c-9 -14 7 -50 16 -36 4 7 3 19 -2 28 -5 9 -12 13 -14 8z"/>
<path d="M4012 7602 c-10 -22 -10 -29 1 -37 8 -5 12 -15 10 -22 -2 -7 1 -21 7
-32 7 -14 7 -21 0 -21 -5 0 -10 5 -10 10 0 6 -5 10 -12 10 -7 0 -5 -7 5 -17 8
-10 15 -22 14 -28 -1 -5 9 -12 22 -13 20 -3 23 -1 16 15 -4 10 -8 24 -8 31 0
6 -4 12 -9 12 -4 0 -8 4 -8 8 0 5 6 9 14 9 8 0 13 -8 11 -18 -2 -10 0 -21 5
-24 14 -9 6 55 -12 96 -21 48 -31 53 -46 21z m23 -11 c-3 -5 -1 -12 5 -16 14
-9 13 -35 -2 -35 -6 0 -8 3 -5 7 4 3 2 12 -4 19 -10 12 -5 34 7 34 3 0 3 -4
-1 -9z"/>
<path d="M4081 7446 c-1 -13 -6 -17 -22 -13 -12 3 -19 1 -17 -5 2 -6 12 -12
22 -14 19 -3 31 18 23 38 -3 8 -6 5 -6 -6z"/>
<path d="M3345 5661 c-3 -5 -1 -12 5 -16 5 -3 10 0 10 7 0 10 3 9 10 -2 5 -9
5 -17 0 -20 -5 -3 -12 -23 -15 -45 -3 -26 -1 -35 6 -28 5 5 11 20 12 32 1 11
4 21 8 21 17 0 15 38 -2 48 -23 14 -26 15 -34 3z"/>
<path d="M3401 4748 c-14 -23 -14 -23 8 -4 22 20 25 26 13 26 -4 0 -13 -10
-21 -22z"/>
</g>
</svg>
