<?xml version="1.0" standalone="no"?>
<!DOCTYPE svg PUBLIC "-//W3C//DTD SVG 20010904//EN"
 "http://www.w3.org/TR/2001/REC-SVG-20010904/DTD/svg10.dtd">
<svg version="1.0" xmlns="http://www.w3.org/2000/svg"
 width="750.000000pt" height="928.000000pt" viewBox="0 0 750.000000 928.000000"
 preserveAspectRatio="xMidYMid meet">

<g transform="translate(0.000000,928.000000) scale(0.100000,-0.100000)"
fill="#000000" stroke="none">
<path d="M0 4640 l0 -4640 2615 0 c1438 0 2615 2 2615 5 0 22 -141 254 -170
280 -11 10 -20 24 -20 32 0 12 -38 77 -92 155 -20 29 -42 197 -34 252 3 17 8
76 11 131 7 124 24 204 75 370 55 177 105 303 147 372 72 119 127 279 203 589
69 285 119 459 177 617 105 288 129 390 143 602 15 238 -12 405 -90 555 -15
31 -31 76 -35 101 -6 41 -3 50 34 107 23 34 43 62 45 62 2 0 30 -18 63 -39 74
-50 130 -64 240 -60 94 4 140 21 215 80 l36 29 127 -20 c206 -33 264 -35 303
-11 22 14 32 28 32 46 0 14 -5 25 -11 25 -5 0 -8 4 -5 9 14 23 -79 75 -181
101 -29 8 -51 15 -49 17 2 2 50 15 107 29 236 57 282 78 277 126 -4 38 -33 61
-49 38 -8 -12 -10 -9 -6 13 3 18 0 30 -9 34 -8 3 -12 9 -9 13 3 5 -3 13 -12
19 -10 6 -14 11 -9 11 6 0 20 -9 32 -21 20 -19 26 -20 61 -9 67 22 167 70 190
92 28 27 30 69 3 93 -17 15 -31 17 -92 12 -40 -3 -92 -12 -116 -21 -53 -19
-55 -7 -1 17 22 11 55 34 74 52 64 60 40 135 -43 135 -42 0 -193 -56 -350
-131 -67 -31 -122 -56 -122 -54 0 10 101 103 128 117 70 37 66 107 -8 129 -34
10 -62 9 -181 -10 -141 -22 -180 -23 -116 -2 41 14 103 68 112 97 3 13 -2 30
-14 45 -30 37 -93 31 -226 -21 -102 -39 -117 -42 -212 -44 -55 0 -96 2 -91 5
6 4 7 13 2 20 -6 12 -5 12 9 0 18 -14 24 -2 7 15 -7 7 34 40 122 100 73 49
154 110 181 136 42 42 47 52 45 85 -3 28 -9 41 -28 50 -30 15 -43 8 -30 -17 6
-12 6 -27 1 -42 -9 -20 -10 -19 -10 15 -1 20 -1 40 0 43 2 13 -27 24 -61 24
-43 0 -108 -30 -223 -103 -99 -62 -133 -67 -80 -11 39 42 45 90 13 119 -26 23
-119 16 -178 -14 -29 -15 -43 -18 -48 -9 -4 6 -3 9 2 5 5 -3 20 1 34 9 15 8
19 14 10 14 -8 1 33 26 92 56 l108 54 87 -25 c142 -42 219 -52 250 -35 68 39
8 111 -124 150 -24 7 -43 14 -43 15 0 1 7 17 16 34 21 41 7 77 -33 87 -25 7
-95 -4 -148 -21 -14 -4 -13 -2 4 8 23 14 23 15 5 20 -10 2 64 4 166 3 198 -1
247 7 275 47 38 55 2 98 -97 116 -56 10 -263 31 -311 31 -15 0 -14 4 9 28 32
33 54 82 54 120 0 81 -78 66 -214 -41 -28 -22 -36 -26 -28 -11 5 10 42 39 82
64 128 80 229 158 245 189 37 72 2 118 -83 108 -26 -2 -56 -8 -66 -12 -12 -5
-17 -5 -13 2 3 5 -24 29 -60 54 -37 24 -71 47 -76 50 -4 3 0 25 9 49 16 41 16
44 -2 77 -17 32 -119 113 -143 113 -5 0 -12 4 -16 9 -7 13 48 4 164 -25 103
-27 164 -30 178 -11 6 6 13 34 17 60 5 42 3 51 -18 72 -21 21 -109 55 -144 55
-7 0 -63 14 -123 32 -93 27 -113 30 -130 20 -19 -12 -20 -11 -14 10 18 61 61
97 122 104 461 51 582 76 617 126 40 56 1 89 -112 96 -43 2 -167 -3 -277 -12
-155 -13 -201 -14 -204 -5 -2 7 -15 23 -28 35 -19 18 -21 23 -8 28 9 3 19 15
23 27 5 12 31 33 58 48 134 71 373 221 420 263 76 70 80 118 9 139 -32 9 -132
-24 -261 -86 -87 -42 -134 -58 -174 -62 -30 -2 -99 -19 -153 -37 -54 -18 -99
-30 -102 -28 -2 3 7 20 22 38 17 23 63 53 136 91 61 32 126 73 144 91 55 55
38 102 -37 102 -17 0 -33 6 -36 13 -2 7 9 41 26 75 33 67 42 138 19 153 -33
21 -68 9 -126 -44 -32 -29 -78 -65 -103 -81 -25 -16 -73 -51 -108 -79 -35 -27
-65 -48 -67 -45 -2 2 25 29 61 61 36 31 62 57 57 57 -4 0 -3 4 3 8 22 15 44
57 44 84 0 61 -69 59 -167 -6 -29 -19 -53 -32 -53 -29 0 3 13 27 28 52 57 92
81 190 55 217 -33 33 -85 7 -166 -82 -44 -49 -49 -52 -75 -42 -27 11 -36 8
-136 -40 -5 -3 -7 7 -4 21 3 14 2 25 -1 25 -3 -1 -18 4 -32 11 -20 10 -32 10
-47 2 -26 -14 -35 -14 -26 0 3 6 6 50 5 97 0 64 -5 90 -17 104 -18 19 -59 24
-69 8 -14 -22 -23 -8 -14 19 12 34 6 85 -11 107 -7 7 -23 14 -35 14 -13 0 -25
7 -29 15 -3 8 -14 15 -25 15 -33 0 -74 -44 -110 -118 -24 -50 -42 -74 -60 -82
-14 -5 -55 -26 -91 -45 -35 -19 -65 -35 -65 -35 0 0 -2 33 -3 73 -4 100 -19
196 -32 212 -7 8 -9 18 -6 23 8 13 -49 36 -69 28 -11 -4 -15 1 -15 20 0 57
-35 79 -83 52 -27 -15 -49 -16 -60 -3 -5 6 -7 4 -4 -5 2 -8 11 -14 21 -12 19
3 21 -11 3 -27 -8 -6 -22 -29 -32 -51 -17 -37 -20 -39 -35 -25 -64 58 -126
-46 -177 -297 -10 -49 -21 -88 -25 -88 -10 0 -10 4 3 97 27 193 35 349 20 395
-17 50 -32 62 -65 47 -14 -7 -26 -15 -26 -19 0 -4 -14 -13 -30 -20 -39 -16
-101 -86 -152 -171 -29 -51 -46 -68 -66 -72 -15 -3 -30 0 -34 6 -4 7 -15 6
-37 -3 -36 -15 -47 -53 -37 -136 3 -30 2 -54 -2 -54 -5 0 -29 20 -54 45 -25
25 -55 45 -65 45 -11 0 -20 6 -20 13 -14 254 -52 512 -84 565 -11 19 -17 37
-13 41 4 3 9 0 11 -6 3 -7 9 -13 14 -13 4 0 6 6 3 14 -3 8 -2 16 3 19 4 3 8
-8 8 -23 1 -16 -3 -26 -7 -24 -4 3 -8 0 -8 -5 0 -6 4 -11 9 -11 12 0 44 -108
38 -130 -3 -13 0 -20 9 -20 8 0 14 -7 14 -16 0 -8 -4 -12 -10 -9 -14 9 -12
-37 4 -115 7 -36 14 -105 15 -155 1 -85 3 -91 29 -112 32 -27 50 -30 31 -5
-13 15 -12 16 3 4 10 -8 17 -17 16 -20 -3 -10 25 -52 34 -52 5 0 8 14 8 31 0
25 -3 30 -17 25 -16 -6 -16 -6 0 12 19 20 23 67 7 77 -6 4 -7 11 -4 17 4 6 10
5 15 -3 7 -11 11 -11 17 -2 12 19 64 36 72 23 10 -17 54 -2 69 23 34 53 60
110 55 118 -3 5 3 6 12 2 13 -5 15 -3 8 8 -5 8 -9 24 -9 36 -1 20 1 21 16 7
13 -12 18 -12 27 -1 9 10 8 17 0 25 -9 9 -8 12 4 12 9 0 18 -6 21 -12 2 -7 8
-10 12 -6 12 11 -5 28 -28 28 -22 1 -22 1 -2 16 18 13 21 13 31 -1 8 -11 14
-13 19 -5 4 6 4 14 1 17 -3 4 2 15 11 26 13 15 15 21 5 24 -6 3 -12 11 -12 18
0 7 -7 15 -15 19 -18 6 -20 -15 -4 -31 6 -6 8 -16 5 -22 -9 -14 -46 -14 -46
-1 0 6 -9 10 -19 10 -30 0 -51 11 -51 26 0 8 10 14 25 14 18 0 25 5 25 20 0
11 -5 20 -11 20 -5 0 -7 5 -4 10 3 6 14 10 24 10 21 0 61 32 61 49 0 6 -14 11
-30 11 -28 0 -30 2 -20 20 8 14 8 26 0 40 -10 19 -19 20 -110 18 -78 -2 -96
-5 -88 -15 7 -8 7 -13 0 -13 -5 0 -15 7 -22 15 -16 20 -219 22 -239 3 -10 -9
-12 -10 -7 -1 5 9 -334 12 -1509 13 l-1515 0 0 -4640z m2940 4620 c-8 -5 -19
-10 -25 -10 -5 0 -3 5 5 10 8 5 20 10 25 10 6 0 3 -5 -5 -10z m465 -1 c10 -16
-1 -22 -26 -14 -17 6 -19 9 -8 16 19 12 26 11 34 -2z m-408 -8 c8 7 13 8 13 1
0 -13 -24 -22 -47 -16 -18 4 -76 -27 -73 -40 1 -3 -4 -32 -11 -64 -8 -38 -10
-133 -8 -286 3 -197 2 -230 -11 -234 -13 -4 -13 -3 -2 10 11 13 12 103 2 138
-5 18 -4 370 1 370 4 0 9 17 13 38 3 21 14 46 24 55 25 23 65 37 76 26 6 -5
15 -4 23 2z m363 -33 c0 -12 -12 -9 -32 6 -26 19 -22 27 7 14 14 -6 25 -15 25
-20z m-120 3 c0 -5 3 -16 6 -24 3 -10 -3 -16 -20 -19 -14 -3 -26 -1 -26 3 0 5
5 9 10 9 6 0 10 9 10 20 0 11 5 20 10 20 6 0 10 -4 10 -9z m50 -5 c0 -3 -4 -8
-10 -11 -5 -3 -10 -1 -10 4 0 6 5 11 10 11 6 0 10 -2 10 -4z m150 -27 c0 -16
4 -19 20 -14 23 7 28 -13 5 -21 -8 -3 -28 8 -47 25 l-33 31 28 0 c21 0 27 -5
27 -21z m-268 -1 c-9 -9 -15 -9 -24 0 -9 9 -7 12 12 12 19 0 21 -3 12 -12z
m148 -8 c0 -5 -7 -10 -15 -10 -8 0 -15 5 -15 10 0 6 7 10 15 10 8 0 15 -4 15
-10z m40 0 c0 -5 -2 -10 -4 -10 -3 0 -8 5 -11 10 -3 6 -1 10 4 10 6 0 11 -4
11 -10z m160 0 c0 -5 -4 -10 -10 -10 -5 0 -10 5 -10 10 0 6 5 10 10 10 6 0 10
-4 10 -10z m-713 -50 c1 -21 -2 -29 -7 -20 -4 7 -6 20 -3 28 3 8 0 18 -8 24
-12 8 -11 9 1 5 9 -2 16 -17 17 -37z m30 18 c-3 -8 -6 -5 -6 6 -1 11 2 17 5
13 3 -3 4 -12 1 -19z m411 12 c19 0 31 -4 27 -10 -10 -15 -105 -8 -105 9 0 9
7 11 23 7 12 -3 37 -6 55 -6z m37 -41 c11 -16 1 -19 -13 -3 -7 8 -8 14 -3 14
5 0 13 -5 16 -11z m94 -5 c3 -4 -2 -4 -11 -1 -12 4 -18 1 -18 -8 0 -8 -7 -15
-15 -15 -8 0 -15 6 -15 14 0 8 -6 16 -12 19 -7 3 4 3 26 1 21 -1 41 -6 45 -10z
m-534 -14 c3 -5 1 -10 -4 -10 -6 0 -11 5 -11 10 0 6 2 10 4 10 3 0 8 -4 11
-10z m565 -8 c-8 -3 -23 -11 -32 -20 -15 -13 -18 -13 -18 -1 0 16 40 38 55 30
5 -2 2 -7 -5 -9z m-235 -12 c3 -5 1 -10 -4 -10 -6 0 -11 5 -11 10 0 6 2 10 4
10 3 0 8 -4 11 -10z m105 0 c0 -5 -6 -10 -14 -10 -8 0 -18 5 -21 10 -3 6 3 10
14 10 12 0 21 -4 21 -10z m-460 -10 c0 -5 -7 -7 -15 -4 -8 4 -15 8 -15 10 0 2
7 4 15 4 8 0 15 -4 15 -10z m287 -52 c-3 -7 -5 -2 -5 12 0 14 2 19 5 13 2 -7
2 -19 0 -25z m344 -19 c-17 -16 -26 -18 -34 -10 -8 8 -7 11 6 11 9 0 17 5 17
10 0 6 8 10 17 10 14 0 13 -4 -6 -21z m-328 -14 c-3 -9 -8 -14 -10 -11 -3 3
-2 9 2 15 9 16 15 13 8 -4z m-26 -27 c-3 -7 -5 -2 -5 12 0 14 2 19 5 13 2 -7
2 -19 0 -25z m-267 -4 c0 -8 -5 -12 -10 -9 -6 4 -8 11 -5 16 9 14 15 11 15 -7z
m482 -46 c2 -23 0 -38 -7 -38 -6 0 -9 18 -6 48 4 51 7 48 13 -10z m118 37 c0
-8 -7 -15 -15 -15 -16 0 -20 12 -8 23 11 12 23 8 23 -8z m-280 -9 c0 -2 -7 -6
-15 -10 -8 -3 -15 -1 -15 4 0 6 7 10 15 10 8 0 15 -2 15 -4z m130 -16 c0 -5
-4 -10 -10 -10 -5 0 -10 5 -10 10 0 6 5 10 10 10 6 0 10 -4 10 -10z m-158 -79
c2 -22 0 -37 -3 -35 -4 2 -9 22 -11 43 -2 22 0 37 3 35 4 -2 9 -22 11 -43z
m281 8 c-29 -12 -36 -10 -23 6 6 8 8 20 4 27 -4 7 3 4 15 -7 21 -18 21 -20 4
-26z m-203 21 c0 -5 -2 -10 -4 -10 -3 0 -8 5 -11 10 -3 6 -1 10 4 10 6 0 11
-4 11 -10z m80 -30 c0 -5 -11 -10 -25 -10 -14 0 -25 5 -25 10 0 6 11 10 25 10
14 0 25 -4 25 -10z m60 0 c0 -5 -4 -10 -10 -10 -5 0 -10 5 -10 10 0 6 5 10 10
10 6 0 10 -4 10 -10z m60 -29 c0 -6 -4 -13 -10 -16 -5 -3 -10 1 -10 9 0 9 5
16 10 16 6 0 10 -4 10 -9z m-35 -10 c3 -5 1 -12 -5 -16 -5 -3 -10 1 -10 9 0
18 6 21 15 7z m-35 -21 c0 -5 -2 -10 -4 -10 -3 0 -8 5 -11 10 -3 6 -1 10 4 10
6 0 11 -4 11 -10z m-1196 -87 c24 -21 49 -48 56 -60 16 -27 32 -31 23 -5 -5
14 -3 13 10 -3 20 -25 21 -34 3 -31 -7 1 -37 27 -65 58 -80 88 -146 103 -167
39 -7 -20 -14 -29 -18 -22 -4 6 3 25 15 42 20 28 26 31 61 26 26 -4 53 -18 82
-44z m241 -3 c27 -16 45 -30 38 -30 -6 0 -27 9 -46 20 -78 46 -138 44 -157 -5
-9 -25 -20 -33 -20 -16 0 5 12 24 27 41 24 29 30 31 67 26 22 -4 63 -20 91
-36z m760 -19 c3 -5 1 -12 -5 -16 -5 -3 -10 1 -10 9 0 18 6 21 15 7z m-675
-41 c14 -10 23 -21 20 -23 -3 -3 -18 6 -35 19 -35 28 -22 32 15 4z m738 3
c-12 -15 -22 -18 -14 -4 4 5 0 11 -6 14 -7 3 -3 4 9 4 17 -1 19 -4 11 -14z
m-1189 -38 c0 -5 -4 -3 -9 5 -5 8 -9 22 -9 30 0 16 17 -16 18 -35z m852 1 c6
3 5 -3 -2 -13 -6 -11 -28 -29 -48 -39 -19 -10 -57 -36 -83 -56 -26 -21 -50
-38 -53 -38 -10 0 -134 104 -130 109 3 2 11 -2 20 -9 12 -10 18 -10 33 1 15
13 16 12 3 -3 -11 -15 -11 -21 -1 -33 15 -18 35 -20 24 -3 -4 7 -3 8 5 4 6 -4
9 -11 6 -16 -3 -5 5 -16 17 -25 18 -12 25 -13 33 -3 11 14 24 23 103 69 28 17
52 33 52 36 0 3 -8 12 -17 20 -16 13 -16 13 5 3 12 -6 27 -8 33 -4z m-341 -11
c11 -13 10 -14 -4 -9 -9 3 -16 10 -16 15 0 13 6 11 20 -6z m-249 -27 c11 -15
76 -76 145 -134 68 -58 124 -108 124 -110 0 -8 -36 14 -49 30 -7 8 -18 14 -24
12 -7 -1 -8 -1 -4 2 13 7 -76 82 -91 77 -7 -3 -11 -1 -8 3 3 5 -19 33 -49 62
-30 30 -55 50 -55 46 0 -5 -9 -1 -20 9 -24 22 -25 32 -4 32 8 0 24 -13 35 -29z
m-232 -38 c0 -8 -6 0 -14 19 -8 18 -15 36 -15 40 1 13 29 -45 29 -59z m601 36
c0 -2 -8 -10 -17 -17 -16 -13 -17 -12 -4 4 13 16 21 21 21 13z m-339 -71 c17
-24 36 -42 42 -38 6 3 7 1 3 -6 -10 -16 -21 -7 -56 45 -40 58 -31 57 11 -1z
m1165 -30 c-11 -53 -13 -56 -18 -31 -5 24 19 103 28 93 1 -1 -3 -29 -10 -62z
m-1401 35 c3 -5 1 -10 -4 -10 -6 0 -11 5 -11 10 0 6 2 10 4 10 3 0 8 -4 11
-10z m30 -52 l16 -33 -20 25 c-20 24 -26 40 -16 40 2 0 12 -15 20 -32z m2416
-58 c-10 -42 -26 -79 -39 -92 -29 -29 -28 -14 3 50 14 29 25 54 25 56 0 9 20
56 23 56 2 0 -3 -32 -12 -70z m-2813 23 c-10 -2 -26 -2 -35 0 -10 3 -2 5 17 5
19 0 27 -2 18 -5z m672 -15 c0 -6 12 -26 26 -45 14 -19 24 -36 21 -39 -5 -5
-50 61 -60 89 -4 11 -3 16 3 12 6 -3 10 -11 10 -17z m-381 -14 c14 -12 -19 -1
-35 12 -18 14 -18 14 6 3 14 -6 27 -13 29 -15z m-378 -11 c-12 -20 -14 -14 -5
12 4 9 9 14 11 11 3 -2 0 -13 -6 -23z m166 21 c-3 -3 -12 -4 -19 -1 -8 3 -5 6
6 6 11 1 17 -2 13 -5z m152 3 c-2 -1 -15 -11 -29 -22 l-25 -20 19 23 c11 12
24 22 29 22 6 0 8 -1 6 -3z m1977 -63 c-3 -8 -10 -14 -15 -14 -5 0 -4 13 2 31
8 21 13 26 15 14 2 -9 1 -23 -2 -31z m-1722 -26 c20 -32 34 -58 31 -58 -6 0
-75 106 -75 116 0 10 3 6 44 -58z m-294 32 c0 -5 -4 -10 -10 -10 -5 0 -10 5
-10 10 0 6 5 10 10 10 6 0 10 -4 10 -10z m2336 -38 c-17 -16 -18 -16 -5 5 7
12 15 20 18 17 3 -2 -3 -12 -13 -22z m-1639 -50 c-4 -13 -5 -13 -6 4 0 12 -8
27 -16 34 -8 7 -15 17 -15 23 0 5 9 -2 21 -17 11 -14 18 -34 16 -44z m-139 12
c-4 -3 -12 5 -18 18 -12 22 -12 22 6 6 10 -10 15 -20 12 -24z m-328 -4 c0 -10
-38 -1 -45 10 -2 4 7 5 20 2 14 -2 25 -8 25 -12z m-627 3 c-7 -2 -19 -2 -25 0
-7 3 -2 5 12 5 14 0 19 -2 13 -5z m230 -50 c20 -18 34 -33 30 -33 -5 1 -30 22
-58 47 -54 50 -34 40 28 -14z m-147 5 l29 -33 -32 29 c-31 28 -38 36 -30 36 2
0 16 -15 33 -32z m575 15 c13 -16 12 -17 -3 -4 -17 13 -22 21 -14 21 2 0 10
-8 17 -17z m376 -63 c-1 -3 4 -15 11 -27 21 -38 5 -26 -19 15 -13 20 -29 41
-36 45 -7 4 -18 18 -24 30 -7 13 4 5 28 -18 22 -22 40 -42 40 -45z m2133 39
c0 -6 -4 -7 -10 -4 -5 3 -10 11 -10 16 0 6 5 7 10 4 6 -3 10 -11 10 -16z
m-2073 -56 c-3 -10 -5 -4 -5 12 0 17 2 24 5 18 2 -7 2 -21 0 -30z m2080 22 c0
-8 -4 -12 -9 -9 -5 3 -6 10 -3 15 9 13 12 11 12 -6z m-2423 -29 c-3 -9 -10
-13 -15 -10 -5 3 -3 11 4 19 15 16 19 13 11 -9z m-358 -48 c24 -17 44 -36 44
-42 0 -7 -3 -8 -8 -1 -4 6 -27 25 -51 43 -25 18 -41 32 -37 32 4 0 28 -14 52
-32z m699 12 c-10 -11 -20 -18 -23 -16 -5 6 21 35 32 36 5 0 1 -9 -9 -20z
m2092 -12 c-3 -7 -5 -2 -5 12 0 14 2 19 5 13 2 -7 2 -19 0 -25z m0 -50 c-3 -7
-5 -2 -5 12 0 14 2 19 5 13 2 -7 2 -19 0 -25z m-2744 -39 c-8 -8 -13 -7 -18 2
-5 8 -4 10 3 5 7 -4 12 -2 12 5 0 7 3 9 7 6 4 -4 2 -12 -4 -18z m-152 -31 c15
-28 5 -21 -21 15 -15 20 -17 27 -6 18 9 -8 22 -23 27 -33z m2886 -25 c-3 -10
-5 -4 -5 12 0 17 2 24 5 18 2 -7 2 -21 0 -30z m-3072 -63 c3 -5 1 -10 -4 -10
-6 0 -11 5 -11 10 0 6 2 10 4 10 3 0 8 -4 11 -10z m-35 -20 c-8 -5 -19 -10
-25 -10 -5 0 -3 5 5 10 8 5 20 10 25 10 6 0 3 -5 -5 -10z m3097 -62 c-3 -8 -6
-5 -6 6 -1 11 2 17 5 13 3 -3 4 -12 1 -19z m-427 -86 c41 -59 27 -45 -35 33
-27 33 -37 50 -23 37 14 -13 40 -44 58 -70z m-2670 42 c0 -2 -9 0 -20 6 -11 6
-20 13 -20 16 0 2 9 0 20 -6 11 -6 20 -13 20 -16z m3087 -6 c-3 -8 -6 -5 -6 6
-1 11 2 17 5 13 3 -3 4 -12 1 -19z m-168 -91 l-1 -42 -7 37 c-4 20 -14 45 -22
54 -13 16 -12 16 9 5 18 -9 22 -20 21 -54z m409 -122 c-3 -3 -9 2 -12 12 -6
14 -5 15 5 6 7 -7 10 -15 7 -18z m568 -60 c1 -8 -2 -15 -7 -15 -6 0 -7 -5 -3
-12 4 -6 3 -8 -3 -5 -5 4 -10 21 -11 38 -1 24 2 29 11 20 6 -6 12 -18 13 -26z
m-625 -89 c-7 -8 -31 -24 -54 -36 -47 -24 -41 -15 18 28 41 30 57 34 36 8z
m-34 -66 c1 -11 -2 -20 -7 -20 -6 0 -7 17 -1 38 3 8 7 -1 8 -18z m-947 -29 c6
-11 6 -22 1 -25 -5 -3 -11 5 -13 19 -6 30 -2 32 12 6z m1 -64 c-10 -9 -11 -8
-5 6 3 10 9 15 12 12 3 -3 0 -11 -7 -18z m1596 -139 c-3 -8 -6 -5 -6 6 -1 11
2 17 5 13 3 -3 4 -12 1 -19z m-747 -98 c0 -5 -2 -10 -4 -10 -3 0 -8 5 -11 10
-3 6 -1 10 4 10 6 0 11 -4 11 -10z m694 -72 c4 -17 2 -28 -4 -28 -5 0 -10 3
-11 8 0 4 -2 20 -4 36 -5 35 10 22 19 -16z m6 -42 c0 -15 -30 -145 -39 -166
-14 -37 -13 -19 4 47 8 31 15 72 15 90 0 18 5 33 10 33 6 0 10 -2 10 -4z
m-161 -95 l-2 -26 -4 25 c-3 14 -10 32 -16 40 -11 13 -10 13 6 1 9 -7 16 -25
16 -40z m108 -123 c-3 -8 -6 -5 -6 6 -1 11 2 17 5 13 3 -3 4 -12 1 -19z m-367
2 c-8 -5 -26 -9 -40 -9 -23 1 -23 2 5 9 43 11 52 11 35 0z m-30 -93 c0 -10 -5
-15 -11 -12 -5 4 -8 12 -6 18 2 7 0 21 -5 32 -9 20 -9 20 6 1 9 -11 16 -28 16
-39z m690 -7 c-8 -5 -19 -10 -25 -10 -5 0 -3 5 5 10 8 5 20 10 25 10 6 0 3 -5
-5 -10z m-209 -19 c22 -18 23 -21 8 -36 -14 -14 -19 -14 -52 0 -43 18 -46 28
-14 43 30 15 32 15 58 -7z m-1311 -16 c8 -11 10 -17 6 -13 -5 4 -15 3 -22 -3
-9 -8 -12 -6 -9 8 2 10 4 22 4 27 1 5 2 7 4 5 1 -2 9 -13 17 -24z m1202 -36
c-20 -23 -21 -22 -14 20 4 31 6 33 18 17 10 -15 10 -21 -4 -37z m308 -16 c0
-26 -2 -44 -4 -42 -8 9 -13 98 -5 93 5 -3 9 -26 9 -51z m-1241 -37 c9 -11 9
-16 -1 -22 -7 -4 -10 -4 -6 1 4 4 3 14 -3 22 -6 7 -9 13 -6 13 2 0 10 -6 16
-14z m31 -78 c0 -15 -3 -29 -7 -31 -5 -3 -8 15 -8 38 0 24 3 39 7 32 4 -7 8
-24 8 -39z m1193 37 c-3 -9 -8 -14 -10 -11 -3 3 -2 9 2 15 9 16 15 13 8 -4z
m-28 -55 c-9 -16 -18 -30 -21 -30 -2 0 2 14 11 30 9 17 18 30 21 30 2 0 -2
-13 -11 -30z m-286 -54 c0 -23 -4 -50 -8 -61 -6 -13 -8 -4 -7 30 1 28 -2 64
-7 80 -7 28 -6 29 8 11 8 -11 15 -38 14 -60z m-1444 34 c10 -11 16 -20 13 -20
-3 0 -13 9 -23 20 -10 11 -16 20 -13 20 3 0 13 -9 23 -20z m1083 -10 c-7 -11
-15 -15 -17 -9 -2 6 3 15 10 20 20 12 21 11 7 -11z m605 -45 c-3 -9 -8 -14
-10 -11 -3 3 -2 9 2 15 9 16 15 13 8 -4z m-1497 -70 c23 -36 14 -38 -14 -4
-13 16 -19 29 -13 29 6 0 18 -11 27 -25z m1227 -20 c-3 -9 -8 -14 -10 -11 -3
3 -2 9 2 15 9 16 15 13 8 -4z m-1206 -47 c-3 -8 -6 -5 -6 6 -1 11 2 17 5 13 3
-3 4 -12 1 -19z m1178 -21 c-8 -21 -18 -37 -20 -37 -3 0 2 16 10 36 8 20 15
39 15 42 0 3 2 3 5 0 3 -3 -2 -21 -10 -41z m-42 9 c3 -7 2 -28 -3 -47 l-8 -34
-1 41 c-1 22 -7 46 -13 53 -11 10 -10 11 4 6 9 -4 19 -12 21 -19z m227 -26
c-6 -11 -13 -20 -16 -20 -2 0 0 9 6 20 6 11 13 20 16 20 2 0 0 -9 -6 -20z
m-32 -55 c-6 -14 -13 -23 -15 -21 -5 5 15 46 22 46 3 0 -1 -11 -7 -25z m254
-99 c3 -16 0 -27 -9 -30 -19 -8 -28 -7 -20 0 3 3 2 17 -3 30 -8 20 -6 24 9 24
12 0 20 -9 23 -24z m-336 -62 c-8 -20 14 -144 26 -144 4 0 9 10 9 23 1 12 5 4
8 -18 3 -22 4 -62 1 -89 -5 -48 -6 -49 -49 -62 l-43 -13 23 25 c21 22 15 36
-6 15 -6 -6 -11 7 -11 37 -3 72 -3 72 -23 72 -10 0 -21 8 -23 18 -3 10 -15 18
-29 19 -46 4 -76 68 -45 98 11 12 14 10 14 -9 0 -31 40 -72 55 -57 15 15 27
14 27 -4 0 -8 7 -15 15 -15 11 0 14 7 10 23 -4 15 -1 28 9 36 9 8 16 24 16 37
0 13 5 24 11 24 6 0 8 -7 5 -16z m61 -69 c-7 -13 -14 -20 -15 -14 -2 5 2 16 8
24 18 21 20 18 7 -10z m-1777 -20 c19 -19 32 -35 29 -35 -3 0 -20 16 -39 35
-19 19 -32 35 -29 35 3 0 20 -16 39 -35z m1274 -71 c18 -17 21 -71 6 -94 -8
-11 -9 -9 -5 11 4 15 0 42 -9 63 -17 40 -15 44 8 20z m-574 -106 c21 -35 25
-74 10 -98 -7 -11 -8 -7 -6 15 3 38 -12 86 -32 103 -10 7 -11 12 -4 12 7 0 21
-15 32 -32z m532 -66 c-11 -11 -23 -18 -26 -15 -3 3 5 14 17 23 29 24 35 18 9
-8z m654 -7 c13 -20 14 -30 4 -59 -6 -19 -18 -40 -28 -48 -14 -12 -14 -10 1
12 23 33 22 96 0 109 -10 6 -12 11 -6 11 7 0 20 -11 29 -25z m194 -152 c0 -23
-25 -83 -36 -83 -2 0 2 13 10 29 12 22 13 37 6 62 -13 44 -13 44 5 29 8 -7 15
-23 15 -37z m-1765 -33 c25 -48 35 -80 26 -80 -5 0 -11 14 -15 32 -4 18 -23
48 -48 71 -39 37 -39 38 -10 23 18 -9 39 -30 47 -46z m1125 -93 c0 -26 -4 -21
-24 28 l-16 40 20 -24 c11 -13 20 -32 20 -44z m428 -40 c6 -7 12 -27 13 -43 2
-30 -10 -79 -17 -71 -3 2 0 16 5 30 8 20 7 30 -5 42 -11 10 -12 15 -3 15 8 0
5 7 -6 20 -10 11 -13 20 -8 20 6 0 15 -6 21 -13z m-447 -20 c-10 -9 -11 -8 -5
6 3 10 9 15 12 12 3 -3 0 -11 -7 -18z m549 -131 c0 -28 -4 -57 -9 -64 -5 -8
-6 7 -4 35 4 35 0 60 -12 84 l-18 34 22 -19 c16 -15 21 -30 21 -70z m350 38
c0 -8 -4 -14 -10 -14 -5 0 -10 9 -10 21 0 11 5 17 10 14 6 -3 10 -13 10 -21z
m-494 -72 c-17 -16 -18 -16 -5 5 7 12 15 20 18 17 3 -2 -3 -12 -13 -22z m990
-34 c-3 -13 -5 -26 -5 -30 -1 -5 -4 -8 -8 -8 -5 0 -8 22 -8 49 0 42 2 46 13
30 6 -9 10 -28 8 -41z m-206 -17 c0 -14 -4 -32 -9 -39 -5 -9 -8 -4 -7 15 0 15
-4 39 -8 53 -8 22 -7 23 8 11 9 -7 16 -25 16 -40z m-207 -23 c13 -20 2 -60
-23 -89 l-21 -24 21 35 c21 37 26 55 12 46 -5 -3 -8 5 -7 17 2 12 -7 30 -19
41 l-21 18 24 -14 c14 -8 29 -22 34 -30z m-631 -10 c-7 -7 -12 -8 -12 -2 0 14
12 26 19 19 2 -3 -1 -11 -7 -17z m818 -32 c0 -2 -8 -10 -17 -17 -16 -13 -17
-12 -4 4 13 16 21 21 21 13z m-867 -30 c-10 -13 -20 -22 -22 -20 -4 4 29 44
36 44 2 0 -4 -11 -14 -24z m-321 -49 c0 -19 -8 -47 -17 -61 -23 -35 -29 -28
-10 10 14 29 14 80 -1 106 -4 7 1 6 11 -3 10 -10 17 -31 17 -52z m-553 27 c12
-15 21 -33 21 -40 0 -17 -37 -37 -45 -25 -7 13 12 24 27 15 7 -5 8 -3 4 5 -5
7 -15 10 -23 7 -9 -4 -13 -1 -10 6 2 7 10 12 16 10 7 -1 10 2 6 7 -3 6 -11 9
-18 7 -7 -1 -8 -1 -4 2 4 2 3 10 -4 18 -7 9 -8 14 -1 14 6 0 20 -12 31 -26z
m844 -39 c0 -15 -4 -30 -9 -35 -5 -5 -9 10 -9 35 0 25 4 40 9 35 5 -5 9 -20 9
-35z m1017 22 c0 -2 -12 -14 -27 -28 l-28 -24 24 28 c23 25 31 32 31 24z
m-5440 -71 c0 -2 -8 -10 -17 -17 -16 -13 -17 -12 -4 4 13 16 21 21 21 13z
m5079 -63 c-12 -15 -12 -16 5 -9 20 7 20 7 0 -15 -17 -20 -17 -22 -1 -16 9 4
17 2 17 -3 0 -6 -22 -10 -50 -10 -27 0 -50 2 -50 5 0 5 80 65 88 65 2 0 -2 -8
-9 -17z m-384 -73 c-16 -11 -34 -20 -38 -20 -14 0 4 21 27 30 37 15 42 11 11
-10z m664 -26 c36 -30 39 -53 10 -85 l-21 -24 14 25 c20 36 11 68 -25 91 -18
10 -27 19 -20 19 6 0 25 -12 42 -26z m-5250 -38 c-2 -2 -22 -6 -44 -9 -28 -5
-34 -4 -20 3 19 8 73 14 64 6z m437 -95 c-5 -8 -56 -3 -56 5 0 2 14 4 31 4 16
0 28 -4 25 -9z m4938 -26 c-30 -40 -30 -40 -75 -20 -32 13 -32 14 -9 16 20 1
18 3 -10 8 -33 7 -32 8 25 15 33 4 65 9 70 11 24 8 24 3 -1 -30z m-4970 0 c-4
-8 -10 -15 -16 -15 -5 0 -20 -11 -33 -25 -14 -13 -25 -20 -25 -16 0 7 68 69
77 71 1 0 0 -7 -3 -15z m-197 -1 c-3 -3 -12 -4 -19 -1 -8 3 -5 6 6 6 11 1 17
-2 13 -5z m-50 -10 c-3 -3 -12 -4 -19 -1 -8 3 -5 6 6 6 11 1 17 -2 13 -5z
m4927 -26 c-4 -13 -19 -35 -34 -49 l-27 -27 0 24 c0 15 11 34 29 49 36 31 41
31 32 3z m-649 -28 c-3 -5 -12 -10 -18 -10 -7 0 -6 4 3 10 19 12 23 12 15 0z
m-4125 -50 c0 -5 -8 -10 -17 -10 -15 0 -16 2 -3 10 19 12 20 12 20 0z m-43
-16 c-3 -3 -12 -4 -19 -1 -8 3 -5 6 6 6 11 1 17 -2 13 -5z m-40 -10 c-3 -3
-12 -4 -19 -1 -8 3 -5 6 6 6 11 1 17 -2 13 -5z m5401 -29 c-3 -3 -9 2 -12 12
-6 14 -5 15 5 6 7 -7 10 -15 7 -18z m-5601 -21 c-3 -3 -12 -4 -19 -1 -8 3 -5
6 6 6 11 1 17 -2 13 -5z m-127 -38 c0 -2 -8 -10 -17 -17 -16 -13 -17 -12 -4 4
13 16 21 21 21 13z m3349 -51 c0 -5 -4 -3 -9 5 -5 8 -9 22 -9 30 0 16 17 -16
18 -35z m19 -162 c-3 -61 -7 -77 -27 -95 l-23 -23 17 27 c9 15 13 33 9 39 -4
8 -3 9 5 5 9 -6 11 17 8 91 -3 73 -1 89 6 63 5 -19 7 -68 5 -107z m-2348 -387
c0 -3 -4 -8 -10 -11 -5 -3 -10 -1 -10 4 0 6 5 11 10 11 6 0 10 -2 10 -4z
m1333 -481 c-3 -9 -8 -14 -10 -11 -3 3 -2 9 2 15 9 16 15 13 8 -4z m-106 -151
c-3 -3 -12 -4 -19 -1 -8 3 -5 6 6 6 11 1 17 -2 13 -5z m113 -184 c0 -5 -5 -10
-11 -10 -5 0 -7 5 -4 10 3 6 8 10 11 10 2 0 4 -4 4 -10z m-100 -34 c0 -3 -4
-8 -10 -11 -5 -3 -10 -1 -10 4 0 6 5 11 10 11 6 0 10 -2 10 -4z m117 -48 c-3
-8 -6 -5 -6 6 -1 11 2 17 5 13 3 -3 4 -12 1 -19z m-66 -15 c13 -16 12 -17 -3
-4 -17 13 -22 21 -14 21 2 0 10 -8 17 -17z m16 -185 c-3 -7 -5 -2 -5 12 0 14
2 19 5 13 2 -7 2 -19 0 -25z m80 -15 c-3 -10 -5 -2 -5 17 0 19 2 27 5 18 2
-10 2 -26 0 -35z m-19 -113 c-6 -22 -14 -40 -19 -40 -5 0 -5 10 0 23 5 12 12
30 15 40 11 34 14 16 4 -23z m-27 -65 c6 -11 -8 0 -30 25 -22 25 -41 49 -41
55 0 11 56 -52 71 -80z m-637 -521 c3 -8 2 -12 -4 -9 -6 3 -10 10 -10 16 0 14
7 11 14 -7z m70 -140 c3 -8 2 -12 -4 -9 -6 3 -10 10 -10 16 0 14 7 11 14 -7z
m36 -64 c6 -11 8 -20 6 -20 -3 0 -10 9 -16 20 -6 11 -8 20 -6 20 3 0 10 -9 16
-20z m54 -96 c3 -8 2 -12 -4 -9 -6 3 -10 10 -10 16 0 14 7 11 14 -7z m26 -44
c6 -11 8 -20 6 -20 -3 0 -10 9 -16 20 -6 11 -8 20 -6 20 3 0 10 -9 16 -20z
m112 -185 c104 -166 116 -185 101 -170 -23 23 -203 309 -203 322 0 9 -2 12
102 -152z m177 -290 c34 -55 61 -104 61 -109 0 -5 -23 28 -51 74 -27 46 -57
93 -65 104 -13 18 -20 46 -10 35 3 -3 32 -49 65 -104z"/>
<path d="M3532 9268 c-19 -19 -14 -31 21 -55 41 -28 56 -30 32 -3 -15 16 -15
22 -5 35 14 17 40 20 40 5 0 -5 7 -10 15 -10 20 0 19 10 -2 26 -22 17 -85 18
-101 2z"/>
<path d="M3805 9270 c4 -6 11 -8 16 -5 14 9 11 15 -7 15 -8 0 -12 -5 -9 -10z"/>
<path d="M3680 9250 c0 -5 5 -10 11 -10 5 0 7 5 4 10 -3 6 -8 10 -11 10 -2 0
-4 -4 -4 -10z"/>
<path d="M3715 9250 c-3 -5 3 -10 15 -10 12 0 18 5 15 10 -3 6 -10 10 -15 10
-5 0 -12 -4 -15 -10z"/>
<path d="M3668 9223 c19 -7 14 -23 -7 -23 -10 0 -24 -7 -31 -15 -10 -13 -9
-15 11 -15 24 1 66 25 62 37 -2 9 -27 23 -38 22 -5 0 -4 -3 3 -6z"/>
<path d="M3780 9219 c0 -5 5 -7 10 -4 6 3 10 8 10 11 0 2 -4 4 -10 4 -5 0 -10
-5 -10 -11z"/>
<path d="M3833 9211 c0 -11 5 -18 9 -15 4 3 5 11 1 19 -7 21 -12 19 -10 -4z"/>
<path d="M3717 9209 c8 -8 16 -8 30 0 16 9 14 10 -11 11 -22 0 -27 -3 -19 -11z"/>
<path d="M4320 9199 c0 -5 5 -7 10 -4 6 3 10 8 10 11 0 2 -4 4 -10 4 -5 0 -10
-5 -10 -11z"/>
<path d="M3868 9193 c7 -3 16 -2 19 1 4 3 -2 6 -13 5 -11 0 -14 -3 -6 -6z"/>
<path d="M3713 9165 c-9 -25 2 -27 22 -5 17 18 17 20 1 20 -9 0 -19 -7 -23
-15z"/>
<path d="M3550 9163 c0 -5 5 -15 10 -23 7 -11 12 -12 21 -3 6 6 8 16 5 22 -8
12 -36 15 -36 4z"/>
<path d="M3520 9120 c0 -12 10 -21 31 -25 17 -4 33 -4 36 -1 4 3 14 -8 24 -24
11 -17 24 -30 31 -29 10 0 10 2 1 6 -7 2 -13 9 -13 14 0 6 5 7 10 4 6 -3 10 1
10 9 0 9 4 16 10 16 5 0 7 7 4 15 -4 10 0 15 11 15 9 0 13 5 10 10 -8 12 -48
13 -60 1 -14 -13 -88 -24 -81 -13 3 6 -1 12 -9 16 -10 3 -15 -1 -15 -14z"/>
<path d="M3682 9090 c0 -14 2 -19 5 -12 2 6 2 18 0 25 -3 6 -5 1 -5 -13z"/>
<path d="M3840 9100 c0 -5 5 -10 11 -10 5 0 7 5 4 10 -3 6 -8 10 -11 10 -2 0
-4 -4 -4 -10z"/>
<path d="M3806 9081 c-4 -7 -5 -15 -2 -18 9 -9 19 4 14 18 -4 11 -6 11 -12 0z"/>
<path d="M3585 9070 c4 -6 -1 -25 -10 -43 -9 -18 -10 -26 -3 -19 17 17 31 15
24 -4 -3 -9 -2 -12 5 -9 6 4 8 13 5 20 -3 8 0 16 7 19 9 3 9 5 0 5 -7 1 -13
10 -13 21 0 11 -5 20 -11 20 -5 0 -7 -5 -4 -10z"/>
<path d="M3715 9049 c-4 -6 -5 -13 -2 -16 7 -7 27 6 27 18 0 12 -17 12 -25 -2z"/>
<path d="M3677 9031 c5 -19 3 -21 -21 -11 -17 6 -26 6 -26 0 0 -6 9 -10 19
-10 11 0 29 -14 41 -31 12 -16 28 -28 35 -25 8 3 16 0 19 -7 2 -7 5 0 5 16 1
30 -13 36 -24 10 -5 -14 -10 -9 -23 24 -19 46 -34 67 -25 34z"/>
<path d="M3752 9020 c1 -13 9 -25 16 -28 17 -5 15 16 -4 35 -14 15 -16 14 -12
-7z"/>
<path d="M3968 8993 c7 -3 16 -2 19 1 4 3 -2 6 -13 5 -11 0 -14 -3 -6 -6z"/>
<path d="M3555 8979 c-11 -17 1 -21 15 -4 8 9 8 15 2 15 -6 0 -14 -5 -17 -11z"/>
<path d="M3870 8945 c0 -8 4 -15 10 -15 5 0 7 7 4 15 -4 8 -8 15 -10 15 -2 0
-4 -7 -4 -15z"/>
<path d="M4066 8947 c3 -10 9 -15 12 -12 3 3 0 11 -7 18 -10 9 -11 8 -5 -6z"/>
<path d="M3730 8897 c0 -16 -3 -18 -9 -8 -5 7 -11 9 -14 5 -3 -5 0 -14 7 -20
9 -8 16 -5 29 12 14 19 14 23 2 28 -10 4 -15 -1 -15 -17z"/>
<path d="M3880 8909 c0 -5 5 -7 10 -4 6 3 10 8 10 11 0 2 -4 4 -10 4 -5 0 -10
-5 -10 -11z"/>
<path d="M4080 8916 c0 -2 7 -7 16 -10 8 -3 12 -2 9 4 -6 10 -25 14 -25 6z"/>
<path d="M3450 8900 c0 -5 5 -10 10 -10 6 0 10 5 10 10 0 6 -4 10 -10 10 -5 0
-10 -4 -10 -10z"/>
<path d="M3830 8886 c0 -2 8 -10 18 -17 15 -13 16 -12 3 4 -13 16 -21 21 -21
13z"/>
<path d="M3746 8872 c-2 -4 4 -13 15 -20 22 -14 25 -7 5 14 -8 8 -17 11 -20 6z"/>
<path d="M3770 8876 c0 -2 7 -7 16 -10 8 -3 12 -2 9 4 -6 10 -25 14 -25 6z"/>
<path d="M4473 8855 c0 -8 4 -12 9 -9 5 3 6 10 3 15 -9 13 -12 11 -12 -6z"/>
<path d="M4528 8843 c7 -3 16 -2 19 1 4 3 -2 6 -13 5 -11 0 -14 -3 -6 -6z"/>
<path d="M3725 8830 c-3 -5 1 -10 9 -10 8 0 18 5 21 10 3 6 -1 10 -9 10 -8 0
-18 -4 -21 -10z"/>
<path d="M3717 8786 c-4 -10 -5 -21 -2 -24 9 -9 17 6 13 25 -3 17 -4 17 -11
-1z"/>
<path d="M3701 8724 c0 -11 3 -14 6 -6 3 7 2 16 -1 19 -3 4 -6 -2 -5 -13z"/>
<path d="M4638 8693 c7 -3 16 -2 19 1 4 3 -2 6 -13 5 -11 0 -14 -3 -6 -6z"/>
<path d="M4270 8630 c-8 -5 -10 -10 -5 -10 6 0 17 5 25 10 8 5 11 10 5 10 -5
0 -17 -5 -25 -10z"/>
<path d="M4205 8610 c3 -5 8 -10 11 -10 2 0 4 5 4 10 0 6 -5 10 -11 10 -5 0
-7 -4 -4 -10z"/>
<path d="M4970 8459 c0 -5 5 -7 10 -4 6 3 10 8 10 11 0 2 -4 4 -10 4 -5 0 -10
-5 -10 -11z"/>
</g>
</svg>
